first trial																																					
nRows=20																																					
nColumns=38																																					
																																					
# SIMM Motion File Header:																																					
name MVN-014																																					
datacolumns 38																																					
datarows 20																																					
otherdata 1																																					
range 15.966 16.282																																					
endheader																																					
time	pelvis_tilt	pelvis_list	pelvis_rotation	pelvis_tx	pelvis_ty	pelvis_tz	hip_flexion_r	hip_adduction_r	hip_rotation_r	knee_angle_r	ankle_angle_r	subtalar_angle_r	mtp_angle_r	hip_flexion_l	hip_adduction_l	hip_rotation_l	knee_angle_l	ankle_angle_l	subtalar_angle_l	mtp_angle_l	lumbar_extension	lumbar_bending	lumbar_rotation	arm_flex_r	arm_add_r	arm_rot_r	elbow_flex_r	pro_sup_r	wrist_flex_r	wrist_dev_r	arm_flex_l	arm_add_l	arm_rot_l	elbow_flex_l	pro_sup_l	wrist_flex_l	wrist_dev_l
15.966	21.7135	1.1479	88.6993	-0.2971	0.7805	0.448	25.6357	-12.8934	8.5637	25.8929	-20.7744	9.9651	0	30.7887	-3.2433	1.0064	40.6365	-12.9319	-0.9142	0	-6.3382	2.1871	-0.7949	51.9867	-24.1963	9.4943	123.744	-4.3221	-29.4714	-33.9228	17.3122	-32.455	2.7877	33.639	106.9577	-6.8852	10.5748
15.982	21.7227	1.148	88.6977	-0.2971	0.7804	0.448	25.6317	-12.8928	8.56	25.8976	-20.772	9.9669	0	30.7844	-3.2425	1.0143	40.641	-12.9312	-0.9131	0	-6.3412	2.1909	-0.8079	52.0406	-24.2999	9.4307	124.1353	-4.5292	-29.5116	-34.0313	17.3067	-32.4637	2.7814	33.6282	106.9538	-6.8856	10.57
15.999	21.7307	1.1492	88.6951	-0.2971	0.7804	0.448	25.6297	-12.8921	8.5527	25.9031	-20.7703	9.9711	0	30.781	-3.2424	1.0233	40.6453	-12.93	-0.9133	0	-6.3443	2.1952	-0.8191	52.0796	-24.3877	9.369	124.5337	-4.7272	-29.5236	-34.1241	17.2989	-32.4721	2.7772	33.6199	106.9533	-6.8844	10.5641
16.016	21.737	1.1515	88.6912	-0.297	0.7803	0.4481	25.6305	-12.8916	8.5398	25.9096	-20.77	9.9793	0	30.7795	-3.2434	1.0328	40.6499	-12.9276	-0.9158	0	-6.3475	2.2005	-0.8282	52.0941	-24.4477	9.3119	124.9328	-4.8921	-29.4602	-34.1934	17.2856	-32.4811	2.7779	33.6174	106.9555	-6.8819	10.5568
16.032	21.7421	1.1549	88.6865	-0.297	0.7803	0.4481	25.6333	-12.891	8.5233	25.9169	-20.7703	9.9899	0	30.779	-3.2451	1.0433	40.6542	-12.9247	-0.9196	0	-6.3508	2.2062	-0.8355	52.0936	-24.492	9.2567	125.3393	-5.048	-29.3682	-34.2469	17.2701	-32.4897	2.7807	33.6174	106.9612	-6.8779	10.5486
16.049	21.746	1.1584	88.6821	-0.2969	0.7803	0.4482	25.6367	-12.89	8.5087	25.9246	-20.7697	9.9993	0	30.7788	-3.2465	1.0545	40.6576	-12.9223	-0.9233	0	-6.3532	2.2116	-0.8399	52.0833	-24.5467	9.1895	125.7851	-5.2437	-29.3484	-34.2847	17.2586	-32.4958	2.7811	33.6118	106.9717	-6.8716	10.5402
16.066	21.7487	1.162	88.6782	-0.2969	0.7802	0.4482	25.6403	-12.888	8.4971	25.9323	-20.768	10.0067	0	30.7783	-3.2472	1.0676	40.6594	-12.9211	-0.9263	0	-6.3542	2.2159	-0.8401	52.0495	-24.6314	9.0995	126.3024	-5.5161	-29.4911	-34.3007	17.255	-32.4987	2.7775	33.5936	106.9897	-6.8616	10.5313
16.082	21.7503	1.1658	88.6744	-0.2968	0.7802	0.4482	25.6447	-12.8857	8.4872	25.9405	-20.7653	10.0128	0	30.778	-3.2475	1.0813	40.6603	-12.9203	-0.9291	0	-6.3544	2.2197	-0.8373	52.0057	-24.7266	8.9975	126.8588	-5.8281	-29.706	-34.3017	17.2556	-32.4989	2.7714	33.57	107.0125	-6.8495	10.5222
16.099	21.7505	1.1691	88.6719	-0.2967	0.7802	0.4482	25.6502	-12.8836	8.4806	25.9495	-20.761	10.0166	0	30.7794	-3.2475	1.0923	40.6619	-12.9186	-0.9318	0	-6.3544	2.2241	-0.8345	51.9978	-24.8005	8.9014	127.3897	-6.1181	-29.8226	-34.3063	17.2557	-32.4964	2.7626	33.5544	107.0334	-6.8385	10.5159
16.116	21.7476	1.1721	88.6712	-0.2967	0.7802	0.4482	25.6587	-12.8816	8.4787	25.9604	-20.7533	10.0163	0	30.7843	-3.2471	1.0991	40.6649	-12.9147	-0.9349	0	-6.3549	2.2293	-0.8307	52.0481	-24.8391	8.8055	127.8841	-6.3635	-29.7509	-34.3212	17.257	-32.4888	2.7502	33.5556	107.0506	-6.8299	10.5152
16.132	21.7432	1.1747	88.6716	-0.2966	0.7801	0.4482	25.6684	-12.88	8.4799	25.9722	-20.7439	10.0137	0	30.7908	-3.2464	1.1032	40.6685	-12.91	-0.9379	0	-6.3553	2.235	-0.8268	52.1345	-24.8565	8.7157	128.3534	-6.5876	-29.5809	-34.3399	17.2578	-32.4784	2.7352	33.565	107.0658	-6.8224	10.5173
16.149	21.7416	1.1763	88.6727	-0.2966	0.7801	0.4482	25.6747	-12.8798	8.4814	25.9819	-20.7364	10.0124	0	30.7952	-3.2451	1.1052	40.6723	-12.9068	-0.9392	0	-6.3544	2.2415	-0.8286	52.2366	-24.8627	8.6681	128.7665	-6.7984	-29.4119	-34.3615	17.2484	-32.472	2.7203	33.5694	107.0779	-6.8161	10.5159
16.166	21.7443	1.1771	88.674	-0.2966	0.7801	0.4482	25.6762	-12.882	8.4822	25.9887	-20.732	10.0144	0	30.7963	-3.2431	1.1046	40.6766	-12.9063	-0.9369	0	-6.352	2.2497	-0.8397	52.3551	-24.86	8.6834	129.111	-7.0085	-29.2692	-34.3859	17.2204	-32.4714	2.704	33.5654	107.0915	-6.8105	10.5076
16.182	21.75	1.1768	88.6759	-0.2966	0.78	0.4483	25.6743	-12.8857	8.4832	25.9934	-20.7296	10.0178	0	30.7953	-3.2404	1.1019	40.6811	-12.9074	-0.9329	0	-6.3483	2.2586	-0.8566	52.4892	-24.8459	8.7408	129.3995	-7.2048	-29.1273	-34.4128	17.182	-32.4748	2.6878	33.5565	107.102	-6.8061	10.4959
16.199	21.7582	1.1754	88.679	-0.2967	0.78	0.4483	25.6684	-12.8894	8.4842	25.996	-20.7289	10.0207	0	30.7912	-3.2372	1.0994	40.6843	-12.9091	-0.9307	0	-6.3439	2.2654	-0.8746	52.6163	-24.824	8.8145	129.6387	-7.3559	-29.01	-34.4402	17.1488	-32.484	2.6797	33.5401	107.0941	-6.8037	10.4858
16.216	21.7701	1.1728	88.6837	-0.2967	0.78	0.4483	25.6568	-12.893	8.4852	25.9961	-20.7299	10.0231	0	30.7821	-3.2328	1.0965	40.6851	-12.9112	-0.9328	0	-6.3378	2.2687	-0.8936	52.7311	-24.7941	8.9039	129.8259	-7.447	-28.9209	-34.4738	17.126	-32.5039	2.6875	33.5099	107.0498	-6.805	10.4785
16.232	21.7847	1.169	88.6898	-0.2967	0.78	0.4483	25.6413	-12.8965	8.4862	25.994	-20.7326	10.0251	0	30.77	-3.2278	1.0937	40.6846	-12.9141	-0.9366	0	-6.3309	2.2698	-0.9138	52.8388	-24.7565	9.0097	129.9641	-7.4931	-28.8563	-34.5078	17.1082	-32.5295	2.7034	33.4722	106.987	-6.8085	10.4727
16.249	21.7994	1.1642	88.6959	-0.2968	0.7799	0.4483	25.6266	-12.8985	8.4867	25.9917	-20.7364	10.025	0	30.7595	-3.2246	1.0946	40.6848	-12.9174	-0.9385	0	-6.3263	2.2693	-0.9313	52.9322	-24.7156	9.108	130.0682	-7.5066	-28.8281	-34.522	17.0952	-32.5477	2.711	33.4435	106.9447	-6.8099	10.4691
16.266	21.8138	1.1578	88.7022	-0.2968	0.7799	0.4484	25.6139	-12.8981	8.4872	25.9894	-20.741	10.0212	0	30.7518	-3.2247	1.1018	40.6864	-12.9216	-0.9364	0	-6.3255	2.2672	-0.9457	53.0124	-24.6695	9.192	130.138	-7.4959	-28.8628	-34.5033	17.0876	-32.552	2.7019	33.4288	106.9434	-6.8082	10.468
16.282	21.8282	1.1503	88.7088	-0.2968	0.7799	0.4485	25.6021	-12.8962	8.4873	25.9869	-20.7467	10.0152	0	30.7458	-3.2265	1.1128	40.6886	-12.9264	-0.9323	0	-6.327	2.2636	-0.9574	53.0783	-24.6202	9.2687	130.1737	-7.4529	-28.9339	-34.4649	17.0848	-32.5488	2.6846	33.4231	106.9626	-6.8044	10.469
